<svg xmlns="http://www.w3.org/2000/svg" version="1.1" xmlns:xlink="http://www.w3.org/1999/xlink" width="512" height="512" x="0" y="0" viewBox="0 0 34 34" style="enable-background:new 0 0 512 512" xml:space="preserve" class=""><g><path d="M33 8v3.5H1V8c0-2.48 2.02-4.5 4.5-4.5H7V7c0 1.65 1.35 3 3 3 1.66 0 3-1.35 3-3V3.5h8V7c0 1.65 1.35 3 3 3 1.66 0 3-1.35 3-3V3.5h1.5A4.5 4.5 0 0 1 33 8zM1 14.5v14C1 30.98 3.02 33 5.5 33h23a4.5 4.5 0 0 0 4.5-4.5v-14zM10 30H8c-.83 0-1.5-.67-1.5-1.5S7.17 27 8 27h2c.83 0 1.5.67 1.5 1.5S10.83 30 10 30zm0-5H8c-.83 0-1.5-.67-1.5-1.5S7.17 22 8 22h2c.83 0 1.5.67 1.5 1.5S10.83 25 10 25zm0-5H8c-.83 0-1.5-.67-1.5-1.5S7.17 17 8 17h2c.83 0 1.5.67 1.5 1.5S10.83 20 10 20zm8 10h-2c-.83 0-1.5-.67-1.5-1.5S15.17 27 16 27h2c.83 0 1.5.67 1.5 1.5S18.83 30 18 30zm0-5h-2c-.83 0-1.5-.67-1.5-1.5S15.17 22 16 22h2c.83 0 1.5.67 1.5 1.5S18.83 25 18 25zm0-5h-2c-.83 0-1.5-.67-1.5-1.5S15.17 17 16 17h2c.83 0 1.5.67 1.5 1.5S18.83 20 18 20zm8 10h-2c-.83 0-1.5-.67-1.5-1.5S23.17 27 24 27h2c.83 0 1.5.67 1.5 1.5S26.83 30 26 30zm0-5h-2c-.83 0-1.5-.67-1.5-1.5S23.17 22 24 22h2c.83 0 1.5.67 1.5 1.5S26.83 25 26 25zm0-5h-2c-.83 0-1.5-.67-1.5-1.5S23.17 17 24 17h2c.83 0 1.5.67 1.5 1.5S26.83 20 26 20z" fill="#ffffff" opacity="1" data-original="#000000" class=""></path><path d="M10.004 8.5a1.5 1.5 0 0 1-1.5-1.5V2.5a1.5 1.5 0 1 1 3 0V7a1.5 1.5 0 0 1-1.5 1.5zM24.004 8.5a1.5 1.5 0 0 1-1.5-1.5V2.5a1.5 1.5 0 1 1 3 0V7a1.5 1.5 0 0 1-1.5 1.5z" fill="#ffffff" opacity="1" data-original="#000000" class=""></path></g></svg>